<svg xmlns="http://www.w3.org/2000/svg" width="142" height="28" viewBox="0 0 142 28">
    <g fill="none" fill-rule="evenodd">
        <g>
            <g>
                <g fill-rule="nonzero">
                    <path fill="#373C94" d="M7.796 15.652c4.042 0 6.974-2.816 7.421-5.815h-3.29c-.25 1.354-1.967 2.762-4.059 2.762-2.647 0-4.614-2.012-4.614-4.773 0-2.78 1.967-4.772 4.614-4.772 2.092 0 3.576 1.133 3.916 2.56h3.29C14.484 2.469 11.802 0 7.796 0 3.308 0 0 3.31 0 7.826c0 4.517 3.308 7.826 7.796 7.826zm16.522 0c4.041 0 6.974-2.816 7.421-5.815h-3.29c-.25 1.354-1.967 2.762-4.06 2.762-2.646 0-4.613-2.012-4.613-4.773 0-2.78 1.967-4.772 4.614-4.772 2.092 0 3.576 1.133 3.916 2.56h3.29C31.006 2.469 28.324 0 24.318 0c-4.488 0-7.796 3.31-7.796 7.826 0 4.517 3.308 7.826 7.796 7.826zm16.957 0c4.041 0 6.974-2.816 7.42-5.815h-3.29c-.25 1.354-1.967 2.762-4.059 2.762-2.646 0-4.613-2.012-4.613-4.773 0-2.78 1.967-4.772 4.613-4.772 2.092 0 3.577 1.133 3.916 2.56h3.29C47.963 2.469 45.28 0 41.276 0c-4.489 0-7.797 3.31-7.797 7.826 0 4.517 3.308 7.826 7.797 7.826zm16.805 0l5.833-14.348h-3.46l-4.004 10.563-4.021-10.563h-3.732l5.833 14.348h3.55z" transform="translate(-178 -24) translate(178 24) translate(32.826 5.348)"/>
                    <path fill="#FBB03B" d="M65.008 15.652c.871 0 1.514-.654 1.514-1.522 0-.867-.643-1.521-1.514-1.521-.887 0-1.53.654-1.53 1.521 0 .868.643 1.522 1.53 1.522z" transform="translate(-178 -24) translate(178 24) translate(32.826 5.348)"/>
                </g>
                <g>
                    <g transform="translate(-178 -24) translate(178 24) translate(0 1) translate(.217)">
                        <rect width="19.951" height="20" fill="#373C94" rx="3"/>
                        <path fill="#FFF" fill-rule="nonzero" d="M4.635 17.933c1.312 0 2.263-.914 2.408-1.887H5.976c-.082.44-.639.896-1.318.896-.859 0-1.497-.653-1.497-1.549 0-.902.638-1.549 1.497-1.549.68 0 1.16.368 1.271.831h1.068c-.192-1.02-1.062-1.822-2.362-1.822-1.457 0-2.53 1.074-2.53 2.54s1.073 2.54 2.53 2.54zm4.399-.119v-2.57h.673v-.907h-.673v-1.033H8.001v1.033h-.673v.908H8v2.57h1.033zm2.188 0v-1.78c0-.528.33-.849.882-.849.203 0 .383.042.528.12l-.012-.992c-.133-.047-.255-.06-.446-.06-.436 0-.749.161-.952.44v-.356h-1.033v3.477h1.033zm2.936 0V12.83h-1.033v4.984h1.033z"/>
                    </g>
                    <g transform="translate(-178 -24) translate(178 24) translate(0 1) translate(21.087)">
                        <rect width="9.365" height="9.388" fill="#FBB03B" rx="3"/>
                        <path fill="#FFF" fill-rule="nonzero" d="M4.74 7.04c1.244 0 2.146-.844 2.283-1.743H6.011c-.077.406-.605.828-1.249.828-.814 0-1.42-.603-1.42-1.431 0-.834.606-1.431 1.42-1.431.644 0 1.1.34 1.205.767h1.012c-.181-.943-1.006-1.683-2.239-1.683-1.381 0-2.399.992-2.399 2.347 0 1.354 1.018 2.347 2.399 2.347z"/>
                    </g>
                    <g transform="translate(-178 -24) translate(178 24) translate(0 1) translate(21.087 10.435)">
                        <rect width="9.469" height="9.492" fill="#FBB03B" rx="3"/>
                        <path fill="#FFF" fill-rule="nonzero" d="M5.291 7.157L7.12 2.515 6.035 2.515 4.78 5.932 3.519 2.515 2.348 2.515 4.178 7.157z"/>
                    </g>
                </g>
                <g fill-rule="nonzero">
                    <path fill="#373C94" d="M7.796 15.652c4.042 0 6.974-2.816 7.421-5.815h-3.29c-.25 1.354-1.967 2.762-4.059 2.762-2.647 0-4.614-2.012-4.614-4.773 0-2.78 1.967-4.772 4.614-4.772 2.092 0 3.576 1.133 3.916 2.56h3.29C14.484 2.469 11.802 0 7.796 0 3.308 0 0 3.31 0 7.826c0 4.517 3.308 7.826 7.796 7.826zm16.522 0c4.041 0 6.974-2.816 7.421-5.815h-3.29c-.25 1.354-1.967 2.762-4.06 2.762-2.646 0-4.613-2.012-4.613-4.773 0-2.78 1.967-4.772 4.614-4.772 2.092 0 3.576 1.133 3.916 2.56h3.29C31.006 2.469 28.324 0 24.318 0c-4.488 0-7.796 3.31-7.796 7.826 0 4.517 3.308 7.826 7.796 7.826zm16.957 0c4.041 0 6.974-2.816 7.42-5.815h-3.29c-.25 1.354-1.967 2.762-4.059 2.762-2.646 0-4.613-2.012-4.613-4.773 0-2.78 1.967-4.772 4.613-4.772 2.092 0 3.577 1.133 3.916 2.56h3.29C47.963 2.469 45.28 0 41.276 0c-4.489 0-7.797 3.31-7.797 7.826 0 4.517 3.308 7.826 7.797 7.826zm16.805 0l5.833-14.348h-3.46l-4.004 10.563-4.021-10.563h-3.732l5.833 14.348h3.55z" transform="translate(-178 -24) translate(178 24) translate(32.826 5.348)"/>
                    <path fill="#FBB03B" d="M65.008 15.652c.871 0 1.514-.654 1.514-1.522 0-.867-.643-1.521-1.514-1.521-.887 0-1.53.654-1.53 1.521 0 .868.643 1.522 1.53 1.522z" transform="translate(-178 -24) translate(178 24) translate(32.826 5.348)"/>
                </g>
                <text fill="#000" font-family="Poppins-SemiBold, Poppins" font-size="20" font-weight="500" transform="translate(-178 -24) translate(178 24)">
                    <tspan x="104.83" y="21">NFT</tspan>
                </text>
            </g>
        </g>
    </g>
</svg>
